<?xml version="1.0" encoding="UTF-8"?>
<svg width="256px" height="256px" viewBox="0 0 256 256" version="1.1" xmlns="http://www.w3.org/2000/svg" xmlns:xlink="http://www.w3.org/1999/xlink">
    <title>Group 87</title>
    <g id="Wordpress" stroke="none" stroke-width="1" fill="none" fill-rule="evenodd">
        <g id="Group-86">
            <g id="Group-72-Copy">
                <g id="Group-44">
                    <rect id="Rectangle" fill="#2A67FF" x="0" y="0" width="256" height="256" rx="20"></rect>
                    <path d="M0,175 L256,175 L256,236 C256,247.045695 247.045695,256 236,256 L20,256 C8.954305,256 1.3527075e-15,247.045695 0,236 L0,175 L0,175 Z" id="Rectangle" fill="#FFFFFF"></path>
                </g>
                <g id="Group-5" transform="translate(69.000000, 29.000000)">
                    <g id="Group-4" transform="translate(24.742557, 0.000000)">
                        <path d="M18.9824012,0 L59.2250919,0 C64.2572634,0 68.3366445,4.06739887 68.3366445,9.08478964 L68.3366445,49.2092772 C68.3366445,59.6621747 59.837934,68.1359223 49.3542432,68.1359223 L9.1115526,68.1359223 C4.07938105,68.1359223 0,64.0685235 0,59.0511327 L0,18.9266451 C0,8.47374764 8.49871052,0 18.9824012,0 Z" id="Rectangle" fill="#FFFFFF"></path>
                        <polygon id="Rectangle-Copy-2" fill="#F9DF00" points="34.1680313 29.368932 58.9109004 29.368932 34.1686131 54.038835 9.42574407 54.038835"></polygon>
                        <polygon id="Rectangle-Copy-2" fill="#B3A000" transform="translate(34.168322, 34.655340) scale(1, -1) translate(-34.168322, -34.655340) " points="34.193088 39.9417476 58.9109004 39.9417476 34.1440404 29.368932 9.42622806 29.368932"></polygon>
                        <polygon id="Rectangle" fill="#2A67FF" points="34.1680313 14.0970874 58.9109004 14.0970874 34.1686131 38.7669903 9.42574407 38.7669903"></polygon>
                    </g>
                    <path d="M11.8540796,83.9802514 C13.3752897,83.9802514 14.8353796,84.1491493 16.2343496,84.486945 C17.6333195,84.8247407 18.8760937,85.3719697 19.9626723,86.128632 C21.0492509,86.8852944 21.9117227,87.85139 22.5500876,89.026919 C23.0278957,89.9067877 23.3268872,90.9266973 23.4470619,92.0866479 L17.1277316,92.0863835 C17.0369025,91.7409202 16.9156775,91.4304696 16.7640566,91.1550318 C16.4516653,90.5875351 16.0374072,90.1416448 15.5212824,89.8173609 C15.0051575,89.4930771 14.4143304,89.263376 13.748801,89.1282577 C13.0832717,88.9931394 12.3566222,88.9255803 11.5688528,88.9255803 C11.0527279,88.9255803 10.5366031,88.9796276 10.0204783,89.0877222 C9.50435345,89.1958169 9.03576643,89.3849824 8.61471723,89.655219 C8.19366803,89.9254555 7.84732111,90.2632512 7.57567646,90.668606 C7.30403181,91.0739609 7.16820949,91.5874103 7.16820949,92.2089544 C7.16820949,92.7764511 7.27686735,93.2358533 7.49418307,93.5871608 C7.71149878,93.9384683 8.1393391,94.2627522 8.77770402,94.5600124 C9.41606894,94.8572726 10.298914,95.1545328 11.4262393,95.451793 C12.5535646,95.7490532 14.0272368,96.1273844 15.8472559,96.5867865 C16.3905452,96.6948811 17.1443591,96.8908026 18.1086976,97.174551 C19.0730361,97.4582994 20.0305835,97.9109456 20.9813397,98.5324897 C21.932096,99.1540337 22.7538211,99.9850111 23.4465149,101.025422 C24.1392088,102.065833 24.4855557,103.396748 24.4855557,105.018167 C24.4855557,106.342326 24.2274933,107.571902 23.7113684,108.706896 C23.1952436,109.841889 22.4278475,110.821497 21.4091801,111.645718 C20.3905126,112.46994 19.127365,113.111752 17.6197373,113.571154 C16.1121095,114.030556 14.3667926,114.260257 12.3837867,114.260257 C10.7810833,114.260257 9.22591769,114.064335 7.7182899,113.672492 C6.21066211,113.280649 4.87960335,112.665861 3.7251136,111.828128 C2.57062385,110.990395 1.65382317,109.92296 0.974711559,108.625825 C0.36731872,107.465676 0.0424148671,106.110971 3.66217473e-14,104.561711 L6.21076463,104.561358 C6.26654415,105.295985 6.43628788,105.93468 6.71999582,106.477444 C7.07313386,107.153036 7.54172088,107.700265 8.12575687,108.119131 C8.70979286,108.537998 9.39569559,108.84877 10.1834651,109.051447 C10.9712345,109.254125 11.7861685,109.355463 12.6282669,109.355463 C13.1987206,109.355463 13.8099211,109.308172 14.4618682,109.213589 C15.1138154,109.119006 15.7250158,108.936597 16.2954696,108.66636 C16.8659234,108.396124 17.3413015,108.024548 17.721604,107.551635 C18.1019065,107.078721 18.2920578,106.477444 18.2920578,105.747806 C18.2920578,104.96412 18.0407865,104.329064 17.5382439,103.842638 C17.0357013,103.356212 16.376963,102.950857 15.5620291,102.626573 C14.7470951,102.30229 13.8235033,102.018541 12.7912537,101.775328 C11.759004,101.532115 10.7131721,101.261879 9.653758,100.964619 C8.56717942,100.694382 7.5077653,100.363342 6.47551564,99.9714993 C5.44326599,99.5796563 4.51967419,99.0729628 3.70474025,98.4514187 C2.88980631,97.8298746 2.23106805,97.0529445 1.72852545,96.1206284 C1.22598286,95.1883123 0.974711559,94.0600748 0.974711559,92.7359157 C0.974711559,91.2496146 1.29389402,89.9592351 1.93225894,88.8647771 C2.57062385,87.7703191 3.40593114,86.8582707 4.4381808,86.128632 C5.47043045,85.3989933 6.63850243,84.8585202 7.94239673,84.5072127 C9.24629103,84.1559052 10.5501853,83.9802514 11.8540796,83.9802514 Z M37.479313,109.873552 C36.8631074,109.873552 35.2452635,109.873552 32.6257814,109.873552 L32.6257814,96.4324784 C35.1999543,96.4324784 36.8042054,96.4324784 37.4385347,96.4324784 C38.3628431,96.4324784 39.1444273,96.6287478 39.7832875,97.0212868 C40.4221477,97.4138257 40.9454694,97.928187 41.3532525,98.5643708 C41.7610356,99.2005545 42.0532802,99.9247211 42.2299862,100.736871 C42.4066922,101.54902 42.4950452,102.374705 42.4950452,103.213927 C42.4950452,104.053148 42.4134886,104.878833 42.2503753,105.690982 C42.0872621,106.503132 41.8086103,107.213763 41.41442,107.822875 C41.0202296,108.431987 40.5037044,108.926044 39.8648442,109.305048 C39.225984,109.684051 38.4308069,109.873552 37.479313,109.873552 Z M26.8361739,92.0874787 L26.8361739,121 L32.626694,121 L32.626694,114.182457 C36.0248866,114.179449 38.1589515,114.177944 39.0288888,114.177944 C40.5784646,114.177944 41.9309452,113.880156 43.0863307,113.28458 C44.2417162,112.689004 45.2068029,111.89039 45.9815908,110.888739 C46.7563787,109.887088 47.3340714,108.736543 47.714669,107.437104 C48.0952665,106.137665 48.2855653,104.784082 48.2855653,103.376356 C48.2855653,101.887416 48.0952665,100.459386 47.714669,99.0922679 C47.3340714,97.7251496 46.7495823,96.5272292 45.9612016,95.4985065 C45.1728209,94.4697838 44.1805487,93.6440985 42.9843849,93.0214506 C41.7882211,92.3988027 40.3609803,92.0874787 38.7026623,92.0874787 C37.832725,92.0874787 35.7122529,92.0874787 32.3412459,92.0874787 L26.8361739,92.0874787 Z M65.8884752,100.893171 L56.503342,100.893171 C56.5304275,100.487379 56.6184555,100.027481 56.7674258,99.5134777 C56.9163962,98.9994741 57.1737087,98.5125233 57.5393632,98.0526254 C57.9050177,97.5927275 58.3925571,97.2072248 59.0019814,96.8961174 C59.6114056,96.5850099 60.3765716,96.4294562 61.2974793,96.4294562 C62.7059264,96.4294562 63.7554904,96.8081957 64.4461711,97.5656746 C65.1368519,98.3231536 65.6176199,99.4323192 65.8884752,100.893171 Z M56.503342,104.545302 L71.6576912,104.545302 C71.7660333,102.922133 71.6306057,101.366596 71.2514084,99.8786907 C70.8722111,98.3907856 70.2560155,97.0651975 69.4028216,95.9019262 C68.5496276,94.738655 67.4594354,93.8120959 66.1322449,93.122249 C64.8050543,92.4324021 63.2476368,92.0874787 61.4599924,92.0874787 C59.8619467,92.0874787 58.4060999,92.3715333 57.0924521,92.9396425 C55.7788043,93.5077517 54.6479838,94.2855203 53.6999906,95.2729482 C52.7519973,96.2603761 52.0206882,97.4304106 51.5060633,98.7830515 C50.9914384,100.135693 50.734126,101.596545 50.734126,103.165608 C50.734126,104.788777 50.984667,106.276683 51.4857492,107.629324 C51.9868313,108.981964 52.6978263,110.145236 53.618734,111.119137 C54.5396417,112.093039 55.6636909,112.843754 56.9908814,113.371284 C58.3180719,113.898814 59.8077756,114.162579 61.4599924,114.162579 C63.8435183,114.162579 65.8749324,113.621523 67.5542347,112.53941 C69.233537,111.457297 70.479471,109.658285 71.2920367,107.142373 L66.2135014,107.142373 C66.0239028,107.79164 65.5092779,108.407092 64.6696267,108.988728 C63.8299755,109.570363 62.8278112,109.861181 61.6631338,109.861181 C60.0380025,109.861181 58.7920686,109.441862 57.9253319,108.603225 C57.0585952,107.764588 56.5845986,106.411947 56.503342,104.545302 Z M89.2967151,100.893171 L79.9115819,100.893171 C79.9386675,100.487379 80.0266954,100.027481 80.1756658,99.5134777 C80.3246361,98.9994741 80.5819486,98.5125233 80.9476031,98.0526254 C81.3132577,97.5927275 81.8007971,97.2072248 82.4102213,96.8961174 C83.0196455,96.5850099 83.7848115,96.4294562 84.7057192,96.4294562 C86.1141663,96.4294562 87.1637303,96.8081957 87.8544111,97.5656746 C88.5450919,98.3231536 89.0258599,99.4323192 89.2967151,100.893171 Z M79.9115819,104.545302 L95.0659311,104.545302 C95.1742732,102.922133 95.0388456,101.366596 94.6596483,99.8786907 C94.280451,98.3907856 93.6642554,97.0651975 92.8110615,95.9019262 C91.9578676,94.738655 90.8676753,93.8120959 89.5404848,93.122249 C88.2132942,92.4324021 86.6558767,92.0874787 84.8682323,92.0874787 C83.2701866,92.0874787 81.8143398,92.3715333 80.500692,92.9396425 C79.1870442,93.5077517 78.0562237,94.2855203 77.1082305,95.2729482 C76.1602372,96.2603761 75.4289282,97.4304106 74.9143033,98.7830515 C74.3996783,100.135693 74.1423659,101.596545 74.1423659,103.165608 C74.1423659,104.788777 74.392907,106.276683 74.8939891,107.629324 C75.3950713,108.981964 76.1060662,110.145236 77.0269739,111.119137 C77.9478816,112.093039 79.0719308,112.843754 80.3991213,113.371284 C81.7263119,113.898814 83.2160155,114.162579 84.8682323,114.162579 C87.2517582,114.162579 89.2831723,113.621523 90.9624746,112.53941 C92.641777,111.457297 93.8877109,109.658285 94.7002766,107.142373 L89.6217413,107.142373 C89.4321427,107.79164 88.9175178,108.407092 88.0778666,108.988728 C87.2382155,109.570363 86.2360512,109.861181 85.0713738,109.861181 C83.4462425,109.861181 82.2003085,109.441862 81.3335718,108.603225 C80.4668351,107.764588 79.9928385,106.411947 79.9115819,104.545302 Z M108.356858,96.3939509 C108.973064,96.3939509 110.590908,96.3939509 113.21039,96.3939509 L113.21039,109.821841 C110.636217,109.821841 109.031966,109.821841 108.397636,109.821841 C107.473328,109.821841 106.691744,109.625764 106.052884,109.233611 C105.414023,108.841457 104.890702,108.3276 104.482919,107.69204 C104.075136,107.05648 103.782891,106.333024 103.606185,105.521671 C103.429479,104.710318 103.341126,103.885443 103.341126,103.047045 C103.341126,102.208647 103.422683,101.383771 103.585796,100.572418 C103.748909,99.7610654 104.027561,99.0511316 104.421751,98.4426169 C104.815941,97.8341023 105.332467,97.3405292 105.971327,96.9618979 C106.610187,96.5832665 107.405364,96.3939509 108.356858,96.3939509 Z M118.999997,114.162579 L118.999997,83.9802514 L113.209477,83.9802514 L113.209477,92.0892719 C109.811285,92.0922776 107.67722,92.0937805 106.807282,92.0937805 C105.257707,92.0937805 103.905226,92.3912765 102.74984,92.9862687 C101.594455,93.5812608 100.629368,94.3790911 99.8545804,95.3797597 C99.0797925,96.3804283 98.5020997,97.5298449 98.1215022,98.8280096 C97.7409046,100.126174 97.5506058,101.478429 97.5506058,102.884774 C97.5506058,104.372254 97.7409046,105.798883 98.1215022,107.164661 C98.5020997,108.530438 99.0865888,109.727184 99.8749695,110.754897 C100.66335,111.782611 101.655622,112.607486 102.851786,113.229524 C104.04795,113.851561 105.475191,114.162579 107.133509,114.162579 C108.003446,114.162579 110.123918,114.162579 113.494925,114.162579 L118.999997,114.162579 Z" id="Combined-Shape" fill="#FFFFFF" fill-rule="nonzero"></path>
                </g>
            </g>
            <g id="bitcoin-btc-logo" transform="translate(83.000000, 189.000000)" fill-rule="nonzero">
                <path d="M49.2464232,31.0476217 C45.9074926,44.4406143 32.3425678,52.5913246 18.9479867,49.2515386 C5.55902662,45.9126081 -2.59168366,32.3468279 0.748713276,18.9549351 C4.08617747,5.56047617 17.6511022,-2.5908451 31.0415287,0.748085464 C44.4351322,4.08701603 52.5853537,17.6542626 49.2460566,31.0478661 L49.246301,31.0476217 L49.2464232,31.0476217 Z" id="Path" fill="#F7931A"></path>
                <path d="M36.0210859,21.438115 C36.518675,18.1111598 33.9857606,16.3227962 30.5221883,15.1297798 L31.6457964,10.6231278 L28.9024575,9.93955375 L27.8086657,14.3275518 C27.0874548,14.1476767 26.3468144,13.9781885 25.6106953,13.8101666 L26.71243,9.39320773 L23.9708019,8.70963367 L22.8465828,13.2148193 C22.2497691,13.0789354 21.6635867,12.9446401 21.0948785,12.8031352 L21.0980556,12.7889602 L17.3149363,11.8442496 L16.5851715,14.7743066 C16.5851715,14.7743066 18.6204968,15.2408575 18.5776054,15.269574 C19.6885049,15.5468406 19.8893979,16.2822265 19.8560379,16.8651097 L18.576139,21.999247 C18.6526348,22.0186764 18.7518593,22.0467819 18.8613485,22.0907731 C18.7698224,22.0680443 18.6724308,22.0432382 18.5713733,22.019043 L16.7773885,29.2112344 C16.6416269,29.5487445 16.2970293,30.055254 15.5203406,29.8629148 C15.547835,29.9027513 13.5264403,29.3653257 13.5264403,29.3653257 L12.1644245,32.5055628 L15.734431,33.3955288 C16.3985756,33.5620843 17.0494007,33.7363382 17.6903277,33.9002054 L16.5551109,38.458547 L19.2952726,39.1421211 L20.4194916,34.6321697 C21.1680749,34.8353845 21.8945404,35.0228358 22.6057311,35.1995337 L21.4853002,39.6882227 L24.2287612,40.3717967 L25.3638559,35.8220089 C30.0418291,36.7073314 33.5592905,36.3503919 35.0398381,32.1191736 C36.2328545,28.7125454 34.98045,26.7476061 32.5193879,25.4662408 C34.3119063,25.0528459 35.6620689,23.8738822 36.0220634,21.4384816 L36.0212081,21.4378706 L36.0210859,21.438115 Z M29.7531981,30.2273084 C28.9053903,33.6339365 23.1696736,31.7924168 21.3100686,31.3306317 L22.8165222,25.2916202 C24.6760049,25.7558494 30.6392538,26.6745318 29.7533203,30.2273084 L29.7531981,30.2273084 Z M30.6016169,21.3887472 C29.8282275,24.487437 25.0543291,22.9131637 23.5057173,22.5271411 L24.8715213,17.050117 C26.420133,17.4361396 31.4072664,18.1566174 30.6018613,21.3887472 L30.6016169,21.3887472 Z" id="Shape" fill="#FFFFFF"></path>
            </g>
            <g id="Lightning_Network" transform="translate(124.000000, 189.000000)" fill-rule="nonzero">
                <circle id="Oval" fill="#7B1AF7" cx="25" cy="25" r="25"></circle>
                <path d="M13.9687579,25.4219684 L30.8295224,10.9460545 C31.5642205,10.4772695 32.2644796,10.9460545 31.8160555,11.750268 L26.4349661,22.2944716 L36.0312421,22.2944716 C36.0312421,22.2944716 37.5558841,22.2944716 36.0312421,23.5454703 L19.43955,38.1106697 C18.2736473,39.0935973 17.4664839,38.557455 18.2736473,37.0383851 L23.475367,26.7623241 L13.9687579,26.7623241 C13.9687579,26.7623241 12.4441159,26.7623241 13.9687579,25.4219684 Z" id="Path" fill="#FFFFFF"></path>
            </g>
        </g>
    </g>
</svg>